<?xml version="1.0" encoding="UTF-8"?>
<svg width="378px" height="83px" viewBox="0 0 378 83" version="1.1" xmlns="http://www.w3.org/2000/svg" xmlns:xlink="http://www.w3.org/1999/xlink">
    <!-- Generator: Sketch 48.1 (47250) - http://www.bohemiancoding.com/sketch -->
    <title>logo_light</title>
    <desc>Created with Sketch.</desc>
    <defs>
        <linearGradient x1="0.112866817%" y1="49.9062954%" x2="100%" y2="49.9062954%" id="linearGradient-1">
            <stop stop-color="#3AB2D9" offset="0.8847657%"></stop>
            <stop stop-color="#39D0CB" offset="100%"></stop>
        </linearGradient>
        <linearGradient x1="-0.0381996992%" y1="49.817561%" x2="99.8976138%" y2="49.817561%" id="linearGradient-2">
            <stop stop-color="#3AB2D9" offset="0.8847657%"></stop>
            <stop stop-color="#39D0CB" offset="100%"></stop>
        </linearGradient>
        <linearGradient x1="50.0265363%" y1="99.6794872%" x2="50.0265363%" y2="-0.0698717949%" id="linearGradient-3">
            <stop stop-color="#3AB2D9" offset="0.8847657%"></stop>
            <stop stop-color="#39D0CB" offset="100%"></stop>
        </linearGradient>
        <linearGradient x1="-63.3347015%" y1="49.821547%" x2="947.323881%" y2="49.821547%" id="linearGradient-4">
            <stop stop-color="#3AB2D9" offset="0.8847657%"></stop>
            <stop stop-color="#39D0CB" offset="100%"></stop>
        </linearGradient>
        <linearGradient x1="-178.489474%" y1="49.956015%" x2="834.04812%" y2="49.956015%" id="linearGradient-5">
            <stop stop-color="#3AB2D9" offset="0.8847657%"></stop>
            <stop stop-color="#39D0CB" offset="100%"></stop>
        </linearGradient>
        <linearGradient x1="-290.184307%" y1="49.821547%" x2="721.177737%" y2="49.821547%" id="linearGradient-6">
            <stop stop-color="#3AB2D9" offset="0.8847657%"></stop>
            <stop stop-color="#39D0CB" offset="100%"></stop>
        </linearGradient>
        <linearGradient x1="-405.557143%" y1="49.956015%" x2="606.980451%" y2="49.956015%" id="linearGradient-7">
            <stop stop-color="#3AB2D9" offset="0.8847657%"></stop>
            <stop stop-color="#39D0CB" offset="100%"></stop>
        </linearGradient>
        <linearGradient x1="-896.007143%" y1="49.8141264%" x2="696.242262%" y2="49.8141264%" id="linearGradient-8">
            <stop stop-color="#3AB2D9" offset="0.8847657%"></stop>
            <stop stop-color="#39D0CB" offset="100%"></stop>
        </linearGradient>
        <linearGradient x1="-766.730769%" y1="49.8607242%" x2="433.596833%" y2="49.8607242%" id="linearGradient-9">
            <stop stop-color="#3AB2D9" offset="0.8847657%"></stop>
            <stop stop-color="#39D0CB" offset="100%"></stop>
        </linearGradient>
        <linearGradient x1="-745.782707%" y1="49.956015%" x2="266.754887%" y2="49.956015%" id="linearGradient-10">
            <stop stop-color="#3AB2D9" offset="0.8847657%"></stop>
            <stop stop-color="#39D0CB" offset="100%"></stop>
        </linearGradient>
        <linearGradient x1="-856.558904%" y1="49.8498715%" x2="151.117328%" y2="49.8498715%" id="linearGradient-11">
            <stop stop-color="#3AB2D9" offset="0.8847657%"></stop>
            <stop stop-color="#39D0CB" offset="100%"></stop>
        </linearGradient>
    </defs>
    <g id="logo" stroke="none" stroke-width="1" fill="none" fill-rule="evenodd" transform="translate(-211.000000, -593.000000)">
        <g id="logo_light" transform="translate(211.000000, 593.000000)">
            <g id="ic_launcher">
                <polygon id="Shape" fill="url(#linearGradient-1)" fill-rule="nonzero" points="26.6243478 1.94025974 2.41043478 40.4220779 6.57391304 46.4584416 50.9478261 44.9493506"></polygon>
                <path d="M41.9634783,28.6727273 L50.5095652,43.1168831 C50.9478261,43.8714286 52.1530435,43.9792208 52.7008696,43.3324675 C52.8104348,43.1168831 52.92,43.0090909 53.0295652,42.7935065 L55.7686957,38.0506494 C56.5356522,36.6493506 58.0695652,35.5714286 59.8226087,35.5714286 C59.8226087,35.5714286 59.8226087,35.5714286 59.8226087,35.5714286 C61.5756522,35.5714286 63.1095652,36.5415584 63.986087,38.0506494 L69.573913,47.6441558 C69.9026087,48.1831169 70.4504348,48.5064935 71.2173913,48.6142857 C71.8747826,48.6142857 72.5321739,48.2909091 72.8608696,47.7519481 L74.9426087,44.5181818 C75.9286957,43.0090909 75.9286957,41.1766234 75.0521739,39.6675325 L67.9304348,27.2714286 C66.1773913,24.2532468 66.1773913,20.6961039 67.9304348,17.6779221 L70.56,13.0428571 C71.8747826,10.7792208 71.9843478,9.16233766 70.7791304,7.00649351 C70.6695652,6.8987013 70.6695652,6.79090909 70.56,6.68311688 C69.1356522,5.28181818 67.053913,4.41948052 65.0817391,4.41948052 L29.9113043,4.41948052 C29.9113043,4.41948052 29.9113043,4.41948052 29.9113043,4.41948052 C28.9252174,4.41948052 28.3773913,5.4974026 28.8156522,6.35974026 L41.9634783,28.6727273 Z" id="Shape" fill="url(#linearGradient-2)" fill-rule="nonzero"></path>
                <path d="M74.2852174,12.7194805 C74.066087,13.3662338 73.7373913,14.012987 73.2991304,14.7675325 L70.6695652,19.2948052 C69.573913,21.3428571 69.573913,23.7142857 70.6695652,25.6545455 L77.7913043,37.9428571 C79.2156522,40.5298701 79.2156522,43.6558442 77.5721739,46.1350649 L75.4904348,49.3688312 C74.5043478,50.8779221 72.8608696,51.7402597 71.1078261,51.7402597 C71.1078261,51.7402597 70.9982609,51.7402597 70.9982609,51.7402597 C69.1356522,51.7402597 67.4921739,50.7701299 66.6156522,49.261039 L61.0278261,39.8831169 C60.5895652,39.2363636 60.0417391,39.1285714 59.7130435,39.1285714 C59.493913,39.1285714 58.8365217,39.1285714 58.3982609,39.8831169 L55.8782609,44.4103896 C54.8921739,46.1350649 53.4678261,47.4285714 51.8243478,48.3987013 C50.0713043,49.3688312 48.2086957,49.6922078 46.2365217,49.6922078 L11.1756522,49.6922078 C10.8469565,49.6922078 10.4086957,49.6922078 10.08,49.6922078 C9.09391304,49.6922078 8.43652174,50.7701299 8.87478261,51.6324675 L23.0086957,75.9935065 C24.4330435,78.3649351 27.0626087,79.9818182 29.9113043,79.9818182 L64.8626087,79.9818182 C66.3965217,79.9818182 67.9304348,79.5506494 69.1356522,78.6883117 C70.2313043,78.0415584 71.1078261,77.0714286 71.6556522,75.9935065 L89.186087,46.1350649 C90.6104348,43.7636364 90.6104348,40.7454545 89.186087,38.374026 L74.2852174,12.7194805 Z" id="Shape" fill="url(#linearGradient-3)" fill-rule="nonzero"></path>
                <g id="Shape">
                    <path d="M11.2852174,45.2727273 L46.2365217,45.2727273 C46.7843478,45.2727273 47.3321739,45.3805195 47.88,45.2727273 L25.0904348,6.46753247 C24.5426087,6.8987013 24.1043478,7.54545455 23.7756522,8.19220779 L6.24521739,38.0506494 C5.36869565,39.4519481 5.14956522,40.8532468 5.36869565,42.4701299 C6.68347826,44.3025974 8.98434783,45.2727273 11.2852174,45.2727273 Z"></path>
                    <path d="M51.7147826,43.4402597 C52.0434783,43.0090909 52.3721739,42.5779221 52.7008696,42.1467532 L55.44,37.2961039 C56.426087,35.6792208 58.1791304,34.4935065 60.0417391,34.4935065 C60.0417391,34.4935065 60.0417391,34.4935065 60.0417391,34.4935065 C62.013913,34.4935065 63.6573913,35.6792208 64.6434783,37.2961039 L70.2313043,46.7818182 C70.56,47.3207792 71.1078261,47.4285714 71.3269565,47.4285714 C71.546087,47.4285714 72.093913,47.4285714 72.5321739,46.7818182 L74.613913,43.5480519 C75.4904348,42.2545455 75.4904348,40.6376623 74.7234783,39.2363636 L67.6017391,26.9480519 C65.7391304,23.8220779 65.7391304,20.0493506 67.6017391,16.8155844 L70.2313043,12.1805195 C71.546087,10.0246753 71.546087,8.51558442 70.3408696,6.46753247 C68.9165217,5.06623377 67.053913,4.2038961 65.0817391,4.2038961 L30.1304348,4.2038961 C29.8017391,4.2038961 29.3634783,4.31168831 29.0347826,4.41948052 L51.7147826,43.4402597 Z"></path>
                    <path d="M74.5043478,13.3662338 C74.2852174,13.6896104 74.1756522,14.012987 73.9565217,14.4441558 L71.3269565,18.9714286 C70.3408696,20.8038961 70.3408696,22.9597403 71.3269565,24.7922078 L78.4486957,37.0805195 C79.9826087,39.7753247 79.9826087,43.2246753 78.2295652,45.8116883 L76.1478261,49.0454545 C75.0521739,50.6623377 73.2991304,51.6324675 71.3269565,51.6324675 C71.3269565,51.6324675 71.2173913,51.6324675 71.2173913,51.6324675 C69.2452174,51.6324675 67.3826087,50.6623377 66.3965217,48.9376623 L60.8086957,39.3441558 C60.5895652,39.0207792 60.2608696,38.8051948 60.0417391,38.8051948 C60.0417391,38.8051948 60.0417391,38.8051948 60.0417391,38.8051948 C59.8226087,38.8051948 59.493913,39.0207792 59.1652174,39.4519481 L56.426087,43.9792208 C54.3443478,47.5363636 50.4,49.5844156 46.2365217,49.5844156 L11.2852174,49.5844156 C10.4086957,49.5844156 9.64173913,49.6922078 8.87478261,49.5844156 L23.666087,75.0233766 C24.9808696,77.287013 27.3913043,78.7961039 30.0208696,78.7961039 L64.9721739,78.7961039 C67.6017391,78.7961039 70.0121739,77.3948052 71.3269565,75.1311688 L88.8573913,45.2727273 C90.1721739,43.0090909 90.1721739,40.2064935 88.8573913,38.0506494 L74.5043478,13.3662338 Z"></path>
                    <path d="M92.8017391,35.787013 L75.2713043,6.03636364 C74.8330435,5.28181818 74.2852174,4.41948052 73.7373913,3.77272727 C71.546087,1.4012987 68.3686957,1.77635684e-15 65.0817391,1.77635684e-15 L30.1304348,1.77635684e-15 C25.9669565,1.77635684e-15 22.0226087,2.37142857 19.9408696,5.92857143 L2.41043478,35.787013 C0.986086957,38.2662338 0.547826087,41.0688312 1.09565217,43.8714286 C1.09565217,43.9792208 1.09565217,44.087013 1.20521739,44.1948052 C1.20521739,44.1948052 1.20521739,44.3025974 1.31478261,44.3025974 C1.53391304,45.3805195 1.97217391,46.4584416 2.52,47.3207792 L20.0504348,77.1792208 C22.1321739,80.7363636 26.0765217,83 30.24,83 L65.1913043,83 C69.3547826,83 73.2991304,80.7363636 75.3808696,77.1792208 L92.9113043,47.3207792 C94.8834783,43.8714286 94.8834783,39.4519481 92.8017391,35.787013 Z M65.0817391,4.31168831 C67.053913,4.31168831 68.9165217,5.17402597 70.3408696,6.57532468 C71.546087,8.62337662 71.4365217,10.1324675 70.2313043,12.2883117 L67.6017391,16.9233766 C65.8486957,20.0493506 65.8486957,23.9298701 67.6017391,27.0558442 L74.7234783,39.3441558 C75.4904348,40.7454545 75.4904348,42.3623377 74.613913,43.6558442 L72.5321739,46.8896104 C72.2034783,47.4285714 71.546087,47.5363636 71.3269565,47.5363636 C71.1078261,47.5363636 70.56,47.4285714 70.2313043,46.8896104 L64.6434783,37.2961039 C63.6573913,35.6792208 61.9043478,34.4935065 60.0417391,34.4935065 C60.0417391,34.4935065 60.0417391,34.4935065 60.0417391,34.4935065 C58.0695652,34.4935065 56.426087,35.6792208 55.44,37.2961039 L52.7008696,42.038961 C52.4817391,42.4701299 52.0434783,43.0090909 51.7147826,43.3324675 L28.9252174,4.52727273 C29.253913,4.41948052 29.6921739,4.31168831 30.0208696,4.31168831 L65.0817391,4.31168831 Z M6.24521739,37.9428571 L23.7756522,8.08441558 C24.1043478,7.43766234 24.5426087,6.8987013 25.0904348,6.46753247 L47.9895652,45.2727273 C47.4417391,45.3805195 46.893913,45.2727273 46.346087,45.2727273 L11.2852174,45.2727273 C8.87478261,45.2727273 6.68347826,44.3025974 5.25913043,42.4701299 C5.14956522,40.8532468 5.36869565,39.4519481 6.24521739,37.9428571 Z M88.9669565,45.2727273 L71.4365217,75.1311688 C70.1217391,77.287013 67.7113043,78.6883117 65.0817391,78.6883117 L30.1304348,78.6883117 C27.5008696,78.6883117 25.0904348,77.287013 23.7756522,75.0233766 L8.87478261,49.5844156 C9.64173913,49.8 10.5182609,49.5844156 11.2852174,49.5844156 L46.2365217,49.5844156 C50.4,49.5844156 54.3443478,47.6441558 56.426087,43.9792208 L59.1652174,39.3441558 C59.3843478,38.912987 59.8226087,38.8051948 60.0417391,38.8051948 C60.0417391,38.8051948 60.0417391,38.8051948 60.0417391,38.8051948 C60.2608696,38.8051948 60.5895652,39.0207792 60.9182609,39.4519481 L66.506087,48.9376623 C67.4921739,50.6623377 69.3547826,51.7402597 71.3269565,51.7402597 C71.3269565,51.7402597 71.4365217,51.7402597 71.4365217,51.7402597 C73.4086957,51.7402597 75.2713043,50.7701299 76.2573913,49.1532468 L78.3391304,45.9194805 C80.0921739,43.2246753 80.0921739,39.9909091 78.5582609,37.1883117 L71.4365217,24.9 C70.3408696,23.0675325 70.3408696,20.9116883 71.4365217,19.0792208 L74.066087,14.5519481 C74.2852174,14.2285714 74.5043478,13.7974026 74.613913,13.474026 L89.0765217,38.0506494 C90.2817391,40.2064935 90.2817391,43.0090909 88.9669565,45.2727273 Z" fill="#FFFFFF" fill-rule="nonzero"></path>
                </g>
            </g>
            <g id="Group" transform="translate(116.000000, 16.000000)" fill-rule="nonzero">
                <path d="M14.7913043,9.91688312 C10.7373913,9.91688312 7.34086957,11.3181818 4.49217391,14.1207792 C1.64347826,16.9233766 0.219130435,20.2649351 0.219130435,24.2532468 C0.219130435,28.2415584 1.64347826,31.5831169 4.49217391,34.3857143 C7.34086957,37.1883117 10.7373913,38.5896104 14.7913043,38.5896104 C18.4069565,38.5896104 21.2556522,37.1883117 23.1182609,34.4935065 C23.1182609,36.6493506 22.2417391,38.5896104 20.4886957,40.3142857 C18.7356522,41.9311688 16.8730435,42.7935065 14.7913043,42.7935065 C11.3947826,42.7935065 8.87478261,41.5 7.23130435,39.0207792 C6.57391304,38.0506494 5.80695652,37.6194805 4.82086957,37.6194805 C4.3826087,37.6194805 4.05391304,37.7272727 3.61565217,37.8350649 L3.50608696,37.8350649 C2.52,38.1584416 1.97217391,38.8051948 1.64347826,39.7753247 C1.53391304,40.0987013 1.42434783,40.4220779 1.42434783,40.7454545 C1.42434783,41.2844156 1.64347826,41.8233766 1.97217391,42.3623377 C4.82086957,46.674026 9.09391304,48.9376623 14.7913043,48.9376623 C18.5165217,48.9376623 21.9130435,47.5363636 24.8713043,44.7337662 C27.9391304,41.8233766 29.5826087,38.4818182 29.5826087,34.6012987 L29.5826087,24.361039 C29.5826087,20.3727273 28.0486957,17.0311688 25.2,14.2285714 C22.3513043,11.3181818 18.8452174,9.91688312 14.7913043,9.91688312 Z M23.0086957,24.2532468 C23.0086957,26.5168831 22.2417391,28.4571429 20.7078261,30.074026 C19.0643478,31.6909091 17.2017391,32.4454545 14.7913043,32.4454545 C12.3808696,32.4454545 10.5182609,31.6909091 8.87478261,30.074026 C7.23130435,28.4571429 6.46434783,26.5168831 6.46434783,24.2532468 C6.46434783,21.9896104 7.23130435,20.0493506 8.87478261,18.4324675 C10.5182609,16.8155844 12.4904348,16.061039 14.7913043,16.061039 C17.0921739,16.061039 18.9547826,16.8155844 20.5982609,18.4324675 C22.2417391,20.0493506 23.0086957,21.8818182 23.0086957,24.1454545 L23.0086957,24.2532468 Z" id="Shape" fill="#0E2A57"></path>
                <path d="M14.7913043,9.91688312 C10.7373913,9.91688312 7.34086957,11.3181818 4.49217391,14.1207792 C1.64347826,16.9233766 0.219130435,20.2649351 0.219130435,24.2532468 C0.219130435,28.2415584 1.64347826,31.5831169 4.49217391,34.3857143 C7.34086957,37.1883117 10.7373913,38.5896104 14.7913043,38.5896104 C18.4069565,38.5896104 21.2556522,37.1883117 23.1182609,34.4935065 C23.1182609,36.6493506 22.2417391,38.5896104 20.4886957,40.3142857 C18.7356522,41.9311688 16.8730435,42.7935065 14.7913043,42.7935065 C11.3947826,42.7935065 8.87478261,41.5 7.23130435,39.0207792 C6.57391304,38.0506494 5.80695652,37.6194805 4.82086957,37.6194805 C4.3826087,37.6194805 4.05391304,37.7272727 3.61565217,37.8350649 L3.50608696,37.8350649 C2.52,38.1584416 1.97217391,38.8051948 1.64347826,39.7753247 C1.53391304,40.0987013 1.42434783,40.4220779 1.42434783,40.7454545 C1.42434783,41.2844156 1.64347826,41.8233766 1.97217391,42.3623377 C4.82086957,46.674026 9.09391304,48.9376623 14.7913043,48.9376623 C18.5165217,48.9376623 21.9130435,47.5363636 24.8713043,44.7337662 C27.9391304,41.8233766 29.5826087,38.4818182 29.5826087,34.6012987 L29.5826087,24.361039 C29.5826087,20.3727273 28.0486957,17.0311688 25.2,14.2285714 C22.3513043,11.3181818 18.8452174,9.91688312 14.7913043,9.91688312 Z M23.0086957,24.2532468 C23.0086957,26.5168831 22.2417391,28.4571429 20.7078261,30.074026 C19.0643478,31.6909091 17.2017391,32.4454545 14.7913043,32.4454545 C12.3808696,32.4454545 10.5182609,31.6909091 8.87478261,30.074026 C7.23130435,28.4571429 6.46434783,26.5168831 6.46434783,24.2532468 C6.46434783,21.9896104 7.23130435,20.0493506 8.87478261,18.4324675 C10.5182609,16.8155844 12.4904348,16.061039 14.7913043,16.061039 C17.0921739,16.061039 18.9547826,16.8155844 20.5982609,18.4324675 C22.2417391,20.0493506 23.0086957,21.8818182 23.0086957,24.1454545 L23.0086957,24.2532468 Z" id="Shape" fill="url(#linearGradient-4)"></path>
                <path d="M48.3182609,9.91688312 C44.2643478,9.91688312 40.8678261,11.3181818 38.0191304,14.1207792 C35.1704348,16.9233766 33.746087,20.2649351 33.746087,24.2532468 C33.746087,28.2415584 35.1704348,31.5831169 38.0191304,34.3857143 C40.8678261,37.1883117 44.2643478,38.5896104 48.3182609,38.5896104 C52.3721739,38.5896104 55.7686957,37.1883117 58.6173913,34.3857143 C61.466087,31.5831169 62.8904348,28.2415584 62.8904348,24.2532468 C62.8904348,20.2649351 61.466087,16.9233766 58.6173913,14.1207792 C55.7686957,11.3181818 52.2626087,9.91688312 48.3182609,9.91688312 Z M54.2347826,30.1818182 C52.5913043,31.7987013 50.6191304,32.5532468 48.3182609,32.5532468 C46.0173913,32.5532468 44.0452174,31.7987013 42.4017391,30.1818182 C40.7582609,28.5649351 39.9913043,26.6246753 39.9913043,24.361039 C39.9913043,22.0974026 40.7582609,20.1571429 42.4017391,18.5402597 C44.0452174,16.9233766 46.0173913,16.1688312 48.3182609,16.1688312 C50.6191304,16.1688312 52.5913043,16.9233766 54.2347826,18.5402597 C55.8782609,20.1571429 56.6452174,22.0974026 56.6452174,24.361039 C56.6452174,26.6246753 55.8782609,28.5649351 54.2347826,30.1818182 Z" id="Shape" fill="#0E2A57"></path>
                <path d="M48.3182609,9.91688312 C44.2643478,9.91688312 40.8678261,11.3181818 38.0191304,14.1207792 C35.1704348,16.9233766 33.746087,20.2649351 33.746087,24.2532468 C33.746087,28.2415584 35.1704348,31.5831169 38.0191304,34.3857143 C40.8678261,37.1883117 44.2643478,38.5896104 48.3182609,38.5896104 C52.3721739,38.5896104 55.7686957,37.1883117 58.6173913,34.3857143 C61.466087,31.5831169 62.8904348,28.2415584 62.8904348,24.2532468 C62.8904348,20.2649351 61.466087,16.9233766 58.6173913,14.1207792 C55.7686957,11.3181818 52.2626087,9.91688312 48.3182609,9.91688312 Z M54.2347826,30.1818182 C52.5913043,31.7987013 50.6191304,32.5532468 48.3182609,32.5532468 C46.0173913,32.5532468 44.0452174,31.7987013 42.4017391,30.1818182 C40.7582609,28.5649351 39.9913043,26.6246753 39.9913043,24.361039 C39.9913043,22.0974026 40.7582609,20.1571429 42.4017391,18.5402597 C44.0452174,16.9233766 46.0173913,16.1688312 48.3182609,16.1688312 C50.6191304,16.1688312 52.5913043,16.9233766 54.2347826,18.5402597 C55.8782609,20.1571429 56.6452174,22.0974026 56.6452174,24.361039 C56.6452174,26.6246753 55.8782609,28.5649351 54.2347826,30.1818182 Z" id="Shape" fill="url(#linearGradient-5)"></path>
                <path d="M80.9686957,9.91688312 C76.9147826,9.91688312 73.5182609,11.3181818 70.6695652,14.1207792 C67.8208696,16.9233766 66.3965217,20.2649351 66.3965217,24.2532468 C66.3965217,28.2415584 67.8208696,31.5831169 70.6695652,34.3857143 C73.5182609,37.1883117 76.9147826,38.5896104 80.9686957,38.5896104 C84.5843478,38.5896104 87.4330435,37.1883117 89.2956522,34.4935065 C89.2956522,36.6493506 88.4191304,38.5896104 86.666087,40.3142857 C84.9130435,41.9311688 83.0504348,42.7935065 80.9686957,42.7935065 C77.5721739,42.7935065 75.0521739,41.5 73.4086957,39.0207792 C72.7513043,38.0506494 71.9843478,37.6194805 70.9982609,37.6194805 C70.56,37.6194805 70.2313043,37.7272727 69.7930435,37.8350649 L69.6834783,37.8350649 C68.6973913,38.1584416 68.1495652,38.8051948 67.8208696,39.7753247 C67.7113043,40.0987013 67.6017391,40.4220779 67.6017391,40.7454545 C67.6017391,41.2844156 67.8208696,41.8233766 68.1495652,42.3623377 C70.9982609,46.674026 75.2713043,48.9376623 80.9686957,48.9376623 C84.693913,48.9376623 88.4191304,47.5363636 91.3773913,44.7337662 C94.4452174,41.8233766 96.4173913,38.4818182 96.4173913,34.6012987 L96.4173913,24.361039 C96.4173913,20.3727273 94.5547826,17.0311688 91.706087,14.2285714 C88.8573913,11.3181818 85.0226087,9.91688312 80.9686957,9.91688312 Z M89.8434783,24.2532468 C89.8434783,26.5168831 88.7478261,28.4571429 87.1043478,30.074026 C85.4608696,31.6909091 83.3791304,32.4454545 81.0782609,32.4454545 C78.7773913,32.4454545 76.6956522,31.6909091 75.0521739,30.074026 C73.4086957,28.4571429 72.6417391,26.5168831 72.6417391,24.2532468 C72.6417391,21.9896104 73.4086957,20.0493506 75.0521739,18.4324675 C76.6956522,16.8155844 78.6678261,16.061039 80.9686957,16.061039 C83.2695652,16.061039 85.4608696,16.8155844 87.1043478,18.4324675 C88.7478261,20.0493506 89.8434783,21.8818182 89.8434783,24.1454545 L89.8434783,24.2532468 Z" id="Shape" fill="#0E2A57"></path>
                <path d="M80.9686957,9.91688312 C76.9147826,9.91688312 73.5182609,11.3181818 70.6695652,14.1207792 C67.8208696,16.9233766 66.3965217,20.2649351 66.3965217,24.2532468 C66.3965217,28.2415584 67.8208696,31.5831169 70.6695652,34.3857143 C73.5182609,37.1883117 76.9147826,38.5896104 80.9686957,38.5896104 C84.5843478,38.5896104 87.4330435,37.1883117 89.2956522,34.4935065 C89.2956522,36.6493506 88.4191304,38.5896104 86.666087,40.3142857 C84.9130435,41.9311688 83.0504348,42.7935065 80.9686957,42.7935065 C77.5721739,42.7935065 75.0521739,41.5 73.4086957,39.0207792 C72.7513043,38.0506494 71.9843478,37.6194805 70.9982609,37.6194805 C70.56,37.6194805 70.2313043,37.7272727 69.7930435,37.8350649 L69.6834783,37.8350649 C68.6973913,38.1584416 68.1495652,38.8051948 67.8208696,39.7753247 C67.7113043,40.0987013 67.6017391,40.4220779 67.6017391,40.7454545 C67.6017391,41.2844156 67.8208696,41.8233766 68.1495652,42.3623377 C70.9982609,46.674026 75.2713043,48.9376623 80.9686957,48.9376623 C84.693913,48.9376623 88.4191304,47.5363636 91.3773913,44.7337662 C94.4452174,41.8233766 96.4173913,38.4818182 96.4173913,34.6012987 L96.4173913,24.361039 C96.4173913,20.3727273 94.5547826,17.0311688 91.706087,14.2285714 C88.8573913,11.3181818 85.0226087,9.91688312 80.9686957,9.91688312 Z M89.8434783,24.2532468 C89.8434783,26.5168831 88.7478261,28.4571429 87.1043478,30.074026 C85.4608696,31.6909091 83.3791304,32.4454545 81.0782609,32.4454545 C78.7773913,32.4454545 76.6956522,31.6909091 75.0521739,30.074026 C73.4086957,28.4571429 72.6417391,26.5168831 72.6417391,24.2532468 C72.6417391,21.9896104 73.4086957,20.0493506 75.0521739,18.4324675 C76.6956522,16.8155844 78.6678261,16.061039 80.9686957,16.061039 C83.2695652,16.061039 85.4608696,16.8155844 87.1043478,18.4324675 C88.7478261,20.0493506 89.8434783,21.8818182 89.8434783,24.1454545 L89.8434783,24.2532468 Z" id="Shape" fill="url(#linearGradient-6)"></path>
                <path d="M114.495652,9.91688312 C110.441739,9.91688312 107.045217,11.3181818 104.196522,14.1207792 C101.347826,16.9233766 99.9234783,20.2649351 99.9234783,24.2532468 C99.9234783,28.2415584 101.347826,31.5831169 104.196522,34.3857143 C107.045217,37.1883117 110.441739,38.5896104 114.495652,38.5896104 C118.549565,38.5896104 121.946087,37.1883117 124.794783,34.3857143 C127.643478,31.5831169 129.067826,28.2415584 129.067826,24.2532468 C129.067826,20.2649351 127.643478,16.9233766 124.794783,14.1207792 C121.946087,11.3181818 118.44,9.91688312 114.495652,9.91688312 Z M120.412174,30.1818182 C118.768696,31.7987013 116.796522,32.5532468 114.495652,32.5532468 C112.194783,32.5532468 110.222609,31.7987013 108.57913,30.1818182 C106.935652,28.5649351 106.168696,26.6246753 106.168696,24.361039 C106.168696,22.0974026 106.935652,20.1571429 108.57913,18.5402597 C110.222609,16.9233766 112.194783,16.1688312 114.495652,16.1688312 C116.796522,16.1688312 118.768696,16.9233766 120.412174,18.5402597 C122.055652,20.1571429 122.822609,22.0974026 122.822609,24.361039 C122.822609,26.6246753 122.055652,28.5649351 120.412174,30.1818182 Z" id="Shape" fill="#0E2A57"></path>
                <path d="M114.495652,9.91688312 C110.441739,9.91688312 107.045217,11.3181818 104.196522,14.1207792 C101.347826,16.9233766 99.9234783,20.2649351 99.9234783,24.2532468 C99.9234783,28.2415584 101.347826,31.5831169 104.196522,34.3857143 C107.045217,37.1883117 110.441739,38.5896104 114.495652,38.5896104 C118.549565,38.5896104 121.946087,37.1883117 124.794783,34.3857143 C127.643478,31.5831169 129.067826,28.2415584 129.067826,24.2532468 C129.067826,20.2649351 127.643478,16.9233766 124.794783,14.1207792 C121.946087,11.3181818 118.44,9.91688312 114.495652,9.91688312 Z M120.412174,30.1818182 C118.768696,31.7987013 116.796522,32.5532468 114.495652,32.5532468 C112.194783,32.5532468 110.222609,31.7987013 108.57913,30.1818182 C106.935652,28.5649351 106.168696,26.6246753 106.168696,24.361039 C106.168696,22.0974026 106.935652,20.1571429 108.57913,18.5402597 C110.222609,16.9233766 112.194783,16.1688312 114.495652,16.1688312 C116.796522,16.1688312 118.768696,16.9233766 120.412174,18.5402597 C122.055652,20.1571429 122.822609,22.0974026 122.822609,24.361039 C122.822609,26.6246753 122.055652,28.5649351 120.412174,30.1818182 Z" id="Shape" fill="url(#linearGradient-7)"></path>
                <path d="M159.746087,22.0974026 C157.226087,21.4506494 155.911304,21.0194805 155.473043,20.8038961 C154.486957,20.2649351 154.048696,19.5103896 154.048696,18.5402597 C154.048696,17.7857143 154.267826,17.2467532 154.815652,16.8155844 C155.363478,16.2766234 155.911304,16.1688312 156.678261,16.1688312 L161.608696,16.1688312 C162.485217,16.1688312 163.58087,15.7376623 164.238261,15.1987013 C164.895652,14.6597403 165.553043,13.7974026 165.553043,13.0428571 C165.553043,12.1805195 164.895652,11.425974 164.238261,10.7792208 C163.58087,10.1324675 162.485217,9.80909091 161.608696,9.80909091 L157.006957,9.80909091 C154.596522,9.80909091 152.514783,10.7792208 150.761739,12.5038961 C149.008696,14.2285714 148.132174,16.2766234 148.132174,18.6480519 C148.132174,21.1272727 148.789565,23.0675325 150.213913,24.361039 C151.2,25.3311688 152.733913,26.0857143 154.706087,26.6246753 C157.335652,27.3792208 158.76,27.8103896 158.97913,27.9181818 C159.965217,28.3493506 160.403478,29.1038961 160.403478,29.9662338 C160.403478,30.7207792 160.184348,31.2597403 159.636522,31.6909091 C159.088696,32.1220779 158.54087,32.3376623 157.773913,32.3376623 L150.871304,32.3376623 C149.994783,32.3376623 149.337391,32.661039 148.789565,33.3077922 C148.132174,33.9545455 147.913043,34.7090909 147.913043,35.5714286 C147.913043,36.4337662 148.132174,37.1883117 148.789565,37.8350649 C149.446957,38.4818182 150.104348,38.8051948 150.871304,38.8051948 L157.445217,38.8051948 C159.855652,38.8051948 161.937391,37.8350649 163.690435,36.1103896 C165.443478,34.3857143 166.32,32.3376623 166.32,29.8584416 C166.32,27.487013 165.662609,25.5467532 164.238261,24.2532468 C163.252174,23.3909091 161.718261,22.6363636 159.746087,22.0974026 Z" id="Shape" fill="#0E2A57"></path>
                <path d="M159.746087,22.0974026 C157.226087,21.4506494 155.911304,21.0194805 155.473043,20.8038961 C154.486957,20.2649351 154.048696,19.5103896 154.048696,18.5402597 C154.048696,17.7857143 154.267826,17.2467532 154.815652,16.8155844 C155.363478,16.2766234 155.911304,16.1688312 156.678261,16.1688312 L161.608696,16.1688312 C162.485217,16.1688312 163.58087,15.7376623 164.238261,15.1987013 C164.895652,14.6597403 165.553043,13.7974026 165.553043,13.0428571 C165.553043,12.1805195 164.895652,11.425974 164.238261,10.7792208 C163.58087,10.1324675 162.485217,9.80909091 161.608696,9.80909091 L157.006957,9.80909091 C154.596522,9.80909091 152.514783,10.7792208 150.761739,12.5038961 C149.008696,14.2285714 148.132174,16.2766234 148.132174,18.6480519 C148.132174,21.1272727 148.789565,23.0675325 150.213913,24.361039 C151.2,25.3311688 152.733913,26.0857143 154.706087,26.6246753 C157.335652,27.3792208 158.76,27.8103896 158.97913,27.9181818 C159.965217,28.3493506 160.403478,29.1038961 160.403478,29.9662338 C160.403478,30.7207792 160.184348,31.2597403 159.636522,31.6909091 C159.088696,32.1220779 158.54087,32.3376623 157.773913,32.3376623 L150.871304,32.3376623 C149.994783,32.3376623 149.337391,32.661039 148.789565,33.3077922 C148.132174,33.9545455 147.913043,34.7090909 147.913043,35.5714286 C147.913043,36.4337662 148.132174,37.1883117 148.789565,37.8350649 C149.446957,38.4818182 150.104348,38.8051948 150.871304,38.8051948 L157.445217,38.8051948 C159.855652,38.8051948 161.937391,37.8350649 163.690435,36.1103896 C165.443478,34.3857143 166.32,32.3376623 166.32,29.8584416 C166.32,27.487013 165.662609,25.5467532 164.238261,24.2532468 C163.252174,23.3909091 161.718261,22.6363636 159.746087,22.0974026 Z" id="Shape" fill="url(#linearGradient-8)"></path>
                <path d="M182.535652,9.91688312 C179.796522,9.91688312 178.591304,10.4558442 176.4,11.425974 L176.4,2.8025974 C176.4,1.94025974 176.18087,1.4012987 175.523478,0.862337662 C174.866087,0.323376623 174.318261,0.107792208 173.441739,0.107792208 L173.332174,0.107792208 C172.455652,0.107792208 172.126957,0.215584416 171.469565,0.862337662 C170.812174,1.50909091 170.812174,2.04805195 170.812174,2.8025974 L170.812174,35.5714286 C170.812174,36.4337662 170.812174,37.1883117 171.469565,37.8350649 C172.126957,38.4818182 172.455652,38.8051948 173.332174,38.8051948 L173.441739,38.8051948 C174.318261,38.8051948 174.866087,38.374026 175.523478,37.8350649 C176.18087,37.2961039 176.4,36.4337662 176.4,35.5714286 L176.4,21.9896104 C176.4,20.3727273 177.057391,18.9714286 178.262609,17.7857143 C179.467826,16.6 180.892174,16.061039 182.645217,16.061039 C184.288696,16.061039 185.713043,16.6 186.808696,17.7857143 C188.013913,18.9714286 188.452174,20.3727273 188.452174,21.9896104 L188.452174,35.5714286 C188.452174,36.4337662 188.78087,37.1883117 189.438261,37.8350649 C190.095652,38.4818182 190.862609,38.8051948 191.73913,38.8051948 C192.615652,38.8051948 193.382609,38.374026 194.04,37.8350649 C194.697391,37.2961039 195.026087,36.4337662 195.026087,35.5714286 L195.026087,21.9896104 C195.026087,18.6480519 193.711304,15.8454545 191.30087,13.474026 C188.890435,11.1025974 185.822609,9.91688312 182.535652,9.91688312 Z" id="Shape" fill="#0E2A57"></path>
                <path d="M182.535652,9.91688312 C179.796522,9.91688312 178.591304,10.4558442 176.4,11.425974 L176.4,2.8025974 C176.4,1.94025974 176.18087,1.4012987 175.523478,0.862337662 C174.866087,0.323376623 174.318261,0.107792208 173.441739,0.107792208 L173.332174,0.107792208 C172.455652,0.107792208 172.126957,0.215584416 171.469565,0.862337662 C170.812174,1.50909091 170.812174,2.04805195 170.812174,2.8025974 L170.812174,35.5714286 C170.812174,36.4337662 170.812174,37.1883117 171.469565,37.8350649 C172.126957,38.4818182 172.455652,38.8051948 173.332174,38.8051948 L173.441739,38.8051948 C174.318261,38.8051948 174.866087,38.374026 175.523478,37.8350649 C176.18087,37.2961039 176.4,36.4337662 176.4,35.5714286 L176.4,21.9896104 C176.4,20.3727273 177.057391,18.9714286 178.262609,17.7857143 C179.467826,16.6 180.892174,16.061039 182.645217,16.061039 C184.288696,16.061039 185.713043,16.6 186.808696,17.7857143 C188.013913,18.9714286 188.452174,20.3727273 188.452174,21.9896104 L188.452174,35.5714286 C188.452174,36.4337662 188.78087,37.1883117 189.438261,37.8350649 C190.095652,38.4818182 190.862609,38.8051948 191.73913,38.8051948 C192.615652,38.8051948 193.382609,38.374026 194.04,37.8350649 C194.697391,37.2961039 195.026087,36.4337662 195.026087,35.5714286 L195.026087,21.9896104 C195.026087,18.6480519 193.711304,15.8454545 191.30087,13.474026 C188.890435,11.1025974 185.822609,9.91688312 182.535652,9.91688312 Z" id="Shape" fill="url(#linearGradient-9)"></path>
                <path d="M213.652174,9.91688312 C209.598261,9.91688312 206.201739,11.3181818 203.353043,14.1207792 C200.504348,16.9233766 199.08,20.2649351 199.08,24.2532468 C199.08,28.2415584 200.504348,31.5831169 203.353043,34.3857143 C206.201739,37.1883117 209.598261,38.5896104 213.652174,38.5896104 C217.706087,38.5896104 221.102609,37.1883117 223.951304,34.3857143 C226.8,31.5831169 228.224348,28.2415584 228.224348,24.2532468 C228.224348,20.2649351 226.8,16.9233766 223.951304,14.1207792 C221.102609,11.3181818 217.706087,9.91688312 213.652174,9.91688312 Z M219.568696,30.1818182 C217.925217,31.7987013 215.953043,32.5532468 213.652174,32.5532468 C211.351304,32.5532468 209.37913,31.7987013 207.735652,30.1818182 C206.092174,28.5649351 205.325217,26.6246753 205.325217,24.361039 C205.325217,22.0974026 206.092174,20.1571429 207.735652,18.5402597 C209.37913,16.9233766 211.351304,16.1688312 213.652174,16.1688312 C215.953043,16.1688312 217.925217,16.9233766 219.568696,18.5402597 C221.212174,20.1571429 221.97913,22.0974026 221.97913,24.361039 C222.088696,26.6246753 221.212174,28.5649351 219.568696,30.1818182 Z" id="Shape" fill="#0E2A57"></path>
                <path d="M213.652174,9.91688312 C209.598261,9.91688312 206.201739,11.3181818 203.353043,14.1207792 C200.504348,16.9233766 199.08,20.2649351 199.08,24.2532468 C199.08,28.2415584 200.504348,31.5831169 203.353043,34.3857143 C206.201739,37.1883117 209.598261,38.5896104 213.652174,38.5896104 C217.706087,38.5896104 221.102609,37.1883117 223.951304,34.3857143 C226.8,31.5831169 228.224348,28.2415584 228.224348,24.2532468 C228.224348,20.2649351 226.8,16.9233766 223.951304,14.1207792 C221.102609,11.3181818 217.706087,9.91688312 213.652174,9.91688312 Z M219.568696,30.1818182 C217.925217,31.7987013 215.953043,32.5532468 213.652174,32.5532468 C211.351304,32.5532468 209.37913,31.7987013 207.735652,30.1818182 C206.092174,28.5649351 205.325217,26.6246753 205.325217,24.361039 C205.325217,22.0974026 206.092174,20.1571429 207.735652,18.5402597 C209.37913,16.9233766 211.351304,16.1688312 213.652174,16.1688312 C215.953043,16.1688312 217.925217,16.9233766 219.568696,18.5402597 C221.212174,20.1571429 221.97913,22.0974026 221.97913,24.361039 C222.088696,26.6246753 221.212174,28.5649351 219.568696,30.1818182 Z" id="Shape" fill="url(#linearGradient-10)"></path>
                <path d="M247.17913,9.91688312 C243.125217,9.91688312 240.166957,11.3181818 237.318261,14.1207792 C234.469565,16.9233766 233.373913,20.2649351 233.373913,24.2532468 L233.373913,49.1532468 C233.373913,50.0155844 233.264348,50.5545455 233.921739,51.0935065 C234.57913,51.6324675 234.798261,51.8480519 235.674783,51.8480519 L235.784348,51.8480519 C236.66087,51.8480519 237.318261,51.7402597 237.975652,51.0935065 C238.633043,50.4467532 238.961739,49.9077922 238.961739,49.1532468 L238.961739,36.2181818 C241.153043,37.8350649 243.673043,38.6974026 247.288696,38.6974026 C251.342609,38.6974026 254.73913,37.2961039 257.587826,34.4935065 C260.436522,31.6909091 261.86087,28.3493506 261.86087,24.361039 C261.86087,20.3727273 260.436522,17.0311688 257.587826,14.2285714 C254.629565,11.3181818 251.123478,9.91688312 247.17913,9.91688312 Z M253.095652,29.9662338 C251.452174,31.5831169 249.48,32.3376623 247.17913,32.3376623 C244.878261,32.3376623 242.906087,31.5831169 241.262609,29.9662338 C239.61913,28.3493506 238.852174,26.4090909 238.852174,24.1454545 C238.852174,21.8818182 239.61913,19.9415584 241.262609,18.3246753 C242.906087,16.7077922 244.878261,15.9532468 247.17913,15.9532468 C249.48,15.9532468 251.452174,16.7077922 253.095652,18.3246753 C254.73913,19.9415584 255.506087,21.8818182 255.506087,24.1454545 C255.506087,26.5168831 254.73913,28.4571429 253.095652,29.9662338 Z" id="Shape" fill="#0E2A57"></path>
                <path d="M247.17913,9.91688312 C243.125217,9.91688312 240.166957,11.3181818 237.318261,14.1207792 C234.469565,16.9233766 233.373913,20.2649351 233.373913,24.2532468 L233.373913,49.1532468 C233.373913,50.0155844 233.264348,50.5545455 233.921739,51.0935065 C234.57913,51.6324675 234.798261,51.8480519 235.674783,51.8480519 L235.784348,51.8480519 C236.66087,51.8480519 237.318261,51.7402597 237.975652,51.0935065 C238.633043,50.4467532 238.961739,49.9077922 238.961739,49.1532468 L238.961739,36.2181818 C241.153043,37.8350649 243.673043,38.6974026 247.288696,38.6974026 C251.342609,38.6974026 254.73913,37.2961039 257.587826,34.4935065 C260.436522,31.6909091 261.86087,28.3493506 261.86087,24.361039 C261.86087,20.3727273 260.436522,17.0311688 257.587826,14.2285714 C254.629565,11.3181818 251.123478,9.91688312 247.17913,9.91688312 Z M253.095652,29.9662338 C251.452174,31.5831169 249.48,32.3376623 247.17913,32.3376623 C244.878261,32.3376623 242.906087,31.5831169 241.262609,29.9662338 C239.61913,28.3493506 238.852174,26.4090909 238.852174,24.1454545 C238.852174,21.8818182 239.61913,19.9415584 241.262609,18.3246753 C242.906087,16.7077922 244.878261,15.9532468 247.17913,15.9532468 C249.48,15.9532468 251.452174,16.7077922 253.095652,18.3246753 C254.73913,19.9415584 255.506087,21.8818182 255.506087,24.1454545 C255.506087,26.5168831 254.73913,28.4571429 253.095652,29.9662338 Z" id="Shape" fill="url(#linearGradient-11)"></path>
            </g>
        </g>
    </g>
</svg>