<?xml version="1.0" encoding="utf-8"?>
<!-- Generator: Adobe Illustrator 20.1.0, SVG Export Plug-In . SVG Version: 6.00 Build 0)  -->
<svg version="1.1" id="圖層_1" xmlns="http://www.w3.org/2000/svg" xmlns:xlink="http://www.w3.org/1999/xlink" x="0px" y="0px"
	 viewBox="0 0 386.5 93" style="enable-background:new 0 0 386.5 93;" xml:space="preserve">
<style type="text/css">
	.st0{fill:url(#SVGID_1_);}
	.st1{fill:url(#SVGID_2_);}
	.st2{fill:url(#SVGID_3_);}
	.st3{fill:none;}
	.st4{fill:#FFFFFF;}
	.st5{fill:url(#SVGID_4_);}
	.st6{fill:url(#SVGID_5_);}
	.st7{fill:url(#SVGID_6_);}
	.st8{fill:url(#SVGID_7_);}
	.st9{fill:url(#SVGID_8_);}
	.st10{fill:url(#SVGID_9_);}
	.st11{fill:url(#SVGID_10_);}
	.st12{fill:url(#SVGID_11_);}
	.st13{display:none;}
	.st14{display:inline;}
	.st15{fill:url(#SVGID_12_);}
	.st16{fill:url(#SVGID_13_);}
	.st17{fill:url(#SVGID_14_);}
	.st18{fill:url(#SVGID_15_);}
	.st19{fill:url(#SVGID_16_);}
	.st20{fill:url(#SVGID_17_);}
	.st21{fill:url(#SVGID_18_);}
	.st22{fill:url(#SVGID_19_);}
</style>
<g>
	<g>
		
			<linearGradient id="SVGID_1_" gradientUnits="userSpaceOnUse" x1="15.25" y1="496.45" x2="59.5" y2="496.45" gradientTransform="matrix(1 0 0 1 0 -466)">
			<stop  offset="8.847657e-03" style="stop-color:#3AB2D9"/>
			<stop  offset="1" style="stop-color:#39D0CB"/>
		</linearGradient>
		<polygon class="st0" points="37.3,9.8 15.2,45.5 19,51.1 59.5,49.7 		"/>
		
			<linearGradient id="SVGID_2_" gradientUnits="userSpaceOnUse" x1="39.1606" y1="498.6" x2="82.0881" y2="498.6" gradientTransform="matrix(1 0 0 1 0 -466)">
			<stop  offset="8.847657e-03" style="stop-color:#3AB2D9"/>
			<stop  offset="1" style="stop-color:#39D0CB"/>
		</linearGradient>
		<path class="st1" d="M51.3,34.6L59.1,48c0.4,0.7,1.5,0.8,2,0.2c0.1-0.2,0.2-0.3,0.3-0.5l2.5-4.4C64.6,42,66,41,67.6,41l0,0
			c1.6,0,3,0.9,3.8,2.3l5.1,8.9c0.3,0.5,0.8,0.8,1.5,0.9c0.6,0,1.2-0.3,1.5-0.8l1.9-3c0.9-1.4,0.9-3.1,0.1-4.5L75,33.3
			c-1.6-2.8-1.6-6.1,0-8.9l2.4-4.3c1.2-2.1,1.3-3.6,0.2-5.6c-0.1-0.1-0.1-0.2-0.2-0.3c-1.3-1.3-3.2-2.1-5-2.1H40.3l0,0
			c-0.9,0-1.4,1-1,1.8L51.3,34.6z"/>
		
			<linearGradient id="SVGID_3_" gradientUnits="userSpaceOnUse" x1="58.1744" y1="548" x2="58.1744" y2="485.7564" gradientTransform="matrix(1 0 0 1 0 -466)">
			<stop  offset="8.847657e-03" style="stop-color:#3AB2D9"/>
			<stop  offset="1" style="stop-color:#39D0CB"/>
		</linearGradient>
		<path class="st2" d="M80.8,19.8c-0.2,0.6-0.5,1.2-0.9,1.9l-2.4,4.2c-1,1.9-1,4.1,0,5.9L84,43.2c1.3,2.4,1.3,5.3-0.2,7.6l-1.9,3
			c-0.9,1.4-2.4,2.2-4,2.2h-0.1c-1.7,0-3.2-0.9-4-2.3L68.7,45c-0.4-0.6-0.9-0.7-1.2-0.7c-0.2,0-0.8,0-1.2,0.7L64,49.2
			c-0.9,1.6-2.2,2.8-3.7,3.7c-1.6,0.9-3.3,1.2-5.1,1.2h-32c-0.3,0-0.7,0-1,0c-0.9,0-1.5,1-1.1,1.8L34,78.5c1.3,2.2,3.7,3.7,6.3,3.7
			h31.9c1.4,0,2.8-0.4,3.9-1.2c1-0.6,1.8-1.5,2.3-2.5l16-27.7c1.3-2.2,1.3-5,0-7.2L80.8,19.8z"/>
		<g>
			<path class="st3" d="M23.3,50h31.9c0.5,0,1,0.1,1.5,0L35.9,14c-0.5,0.4-0.9,1-1.2,1.6l-16,27.7c-0.8,1.3-1,2.6-0.8,4.1
				C19.1,49.1,21.2,50,23.3,50z"/>
			<path class="st3" d="M60.2,48.3c0.3-0.4,0.6-0.8,0.9-1.2l2.5-4.5c0.9-1.5,2.5-2.6,4.2-2.6l0,0c1.8,0,3.3,1.1,4.2,2.6l5.1,8.8
				c0.3,0.5,0.8,0.6,1,0.6s0.7,0,1.1-0.6l1.9-3c0.8-1.2,0.8-2.7,0.1-4L74.7,33c-1.7-2.9-1.7-6.4,0-9.4l2.4-4.3
				c1.2-2,1.2-3.4,0.1-5.3c-1.3-1.3-3-2.1-4.8-2.1H40.5c-0.3,0-0.7,0.1-1,0.2L60.2,48.3z"/>
			<path class="st3" d="M81,20.4c-0.2,0.3-0.3,0.6-0.5,1l-2.4,4.2c-0.9,1.7-0.9,3.7,0,5.4l6.5,11.4c1.4,2.5,1.4,5.7-0.2,8.1l-1.9,3
				c-1,1.5-2.6,2.4-4.4,2.4H78c-1.8,0-3.5-0.9-4.4-2.5l-5.1-8.9C68.3,44.2,68,44,67.8,44l0,0c-0.2,0-0.5,0.2-0.8,0.6l-2.5,4.2
				C62.6,52.1,59,54,55.2,54H23.3c-0.8,0-1.5,0.1-2.2,0l13.5,23.6c1.2,2.1,3.4,3.5,5.8,3.5h31.9c2.4,0,4.6-1.3,5.8-3.4l16-27.7
				c1.2-2.1,1.2-4.7,0-6.7L81,20.4z"/>
			<path class="st4" d="M97.7,41.2l-16-27.6c-0.4-0.7-0.9-1.5-1.4-2.1c-2-2.2-4.9-3.5-7.9-3.5H40.5c-3.8,0-7.4,2.2-9.3,5.5l-16,27.7
				c-1.3,2.3-1.7,4.9-1.2,7.5c0,0.1,0,0.2,0.1,0.3l0,0c0,0,0,0.1,0.1,0.1c0.2,1,0.6,2,1.1,2.8l16,27.7c1.9,3.3,5.5,5.4,9.3,5.4h31.9
				c3.8,0,7.4-2.1,9.3-5.4l16-27.7C99.6,48.7,99.6,44.6,97.7,41.2z M72.4,12c1.8,0,3.5,0.8,4.8,2.1c1.1,1.9,1,3.3-0.1,5.3l-2.4,4.3
				c-1.6,2.9-1.6,6.5,0,9.4l6.5,11.4c0.7,1.3,0.7,2.8-0.1,4l-1.9,3c-0.3,0.5-0.9,0.6-1.1,0.6s-0.7-0.1-1-0.6L72,42.6
				c-0.9-1.5-2.5-2.6-4.2-2.6l0,0c-1.8,0-3.3,1.1-4.2,2.6L61.1,47c-0.2,0.4-0.6,0.9-0.9,1.2l-20.8-36c0.3-0.1,0.7-0.2,1-0.2
				C40.4,12,72.4,12,72.4,12z M18.7,43.2l16-27.7c0.3-0.6,0.7-1.1,1.2-1.5l20.9,36c-0.5,0.1-1,0-1.5,0h-32c-2.2,0-4.2-0.9-5.5-2.6
				C17.7,45.9,17.9,44.6,18.7,43.2z M94.2,50l-16,27.7c-1.2,2-3.4,3.3-5.8,3.3H40.5c-2.4,0-4.6-1.3-5.8-3.4L21.1,54
				c0.7,0.2,1.5,0,2.2,0h31.9c3.8,0,7.4-1.8,9.3-5.2l2.5-4.3c0.2-0.4,0.6-0.5,0.8-0.5l0,0c0.2,0,0.5,0.2,0.8,0.6l5.1,8.8
				c0.9,1.6,2.6,2.6,4.4,2.6h0.1c1.8,0,3.5-0.9,4.4-2.4l1.9-3c1.6-2.5,1.6-5.5,0.2-8.1l-6.5-11.4c-1-1.7-1-3.7,0-5.4l2.4-4.2
				c0.2-0.3,0.4-0.7,0.5-1l13.2,22.8C95.4,45.3,95.4,47.9,94.2,50z"/>
		</g>
	</g>
	<g>
		
			<linearGradient id="SVGID_4_" gradientUnits="userSpaceOnUse" x1="94.0191" y1="514.9127" x2="395.5757" y2="514.9127" gradientTransform="matrix(1 0 0 1 0 -466)">
			<stop  offset="8.847657e-03" style="stop-color:#3AB2D9"/>
			<stop  offset="1" style="stop-color:#39D0CB"/>
		</linearGradient>
		<path class="st5" d="M127.7,28.8c-4.1,0-7.6,1.4-10.5,4.3s-4.3,6.3-4.3,10.5s1.4,7.6,4.3,10.5s6.3,4.3,10.5,4.3
			c3.7,0,6.6-1.4,8.5-4.2c0,2.2-0.9,4.2-2.7,6c-1.8,1.7-3.7,2.6-5.8,2.6c-3.5,0-6-1.3-7.7-3.9c-0.7-1-1.4-1.4-2.4-1.4
			c-0.4,0-0.8,0.1-1.2,0.2h-0.1c-1,0.3-1.6,1-1.9,2c-0.1,0.3-0.2,0.7-0.2,1c0,0.6,0.2,1.1,0.6,1.7c2.9,4.5,7.2,6.8,13,6.8
			c3.8,0,7.2-1.4,10.2-4.3c3.1-3,4.8-6.5,4.8-10.5V43.7c0-4.1-1.6-7.6-4.5-10.5C135.4,30.2,131.8,28.8,127.7,28.8z M136.1,43.6
			c0,2.3-0.8,4.3-2.3,6c-1.7,1.7-3.6,2.4-6,2.4s-4.3-0.8-6-2.4s-2.4-3.7-2.4-6c0-2.3,0.8-4.3,2.4-6s3.7-2.4,6-2.4
			c2.3,0,4.2,0.8,5.9,2.4s2.4,3.6,2.4,5.9V43.6z"/>
		
			<linearGradient id="SVGID_5_" gradientUnits="userSpaceOnUse" x1="94.1254" y1="509.5687" x2="393.988" y2="509.5687" gradientTransform="matrix(1 0 0 1 0 -466)">
			<stop  offset="8.847657e-03" style="stop-color:#3AB2D9"/>
			<stop  offset="1" style="stop-color:#39D0CB"/>
		</linearGradient>
		<path class="st6" d="M161.8,28.8c-4.1,0-7.6,1.4-10.5,4.3c-2.9,2.9-4.3,6.3-4.3,10.5s1.4,7.6,4.3,10.5s6.3,4.3,10.5,4.3
			s7.6-1.4,10.5-4.3s4.3-6.3,4.3-10.5s-1.4-7.6-4.3-10.5C169.4,30.2,165.8,28.8,161.8,28.8z M167.8,49.7c-1.7,1.7-3.7,2.4-6,2.4
			c-2.3,0-4.3-0.8-6-2.4c-1.7-1.7-2.4-3.7-2.4-6c0-2.3,0.8-4.3,2.4-6c1.7-1.7,3.7-2.4,6-2.4c2.3,0,4.3,0.8,6,2.4s2.4,3.7,2.4,6
			C170.3,46,169.5,48,167.8,49.7z"/>
		
			<linearGradient id="SVGID_6_" gradientUnits="userSpaceOnUse" x1="91.6401" y1="514.9127" x2="400.1625" y2="514.9127" gradientTransform="matrix(1 0 0 1 0 -466)">
			<stop  offset="8.847657e-03" style="stop-color:#3AB2D9"/>
			<stop  offset="1" style="stop-color:#39D0CB"/>
		</linearGradient>
		<path class="st7" d="M195,28.8c-4.1,0-7.6,1.4-10.5,4.3c-2.9,2.9-4.3,6.3-4.3,10.5s1.4,7.6,4.3,10.5s6.3,4.3,10.5,4.3
			c3.7,0,6.6-1.4,8.5-4.2c0,2.2-0.9,4.2-2.7,6c-1.8,1.7-3.7,2.6-5.8,2.6c-3.5,0-6-1.3-7.7-3.9c-0.7-1-1.4-1.4-2.4-1.4
			c-0.4,0-0.8,0.1-1.2,0.2h-0.1c-1,0.3-1.6,1-1.9,2c-0.1,0.3-0.2,0.7-0.2,1c0,0.6,0.2,1.1,0.6,1.7c2.9,4.5,7.2,6.8,13,6.8
			c3.8,0,7.6-1.4,10.6-4.3c3.1-3,5.1-6.5,5.1-10.5V43.7c0-4.1-1.9-7.6-4.8-10.5C203,30.2,199.1,28.8,195,28.8z M204,43.6
			c0,2.3-1.1,4.3-2.8,6c-1.7,1.7-3.8,2.4-6.1,2.4s-4.5-0.8-6.1-2.4s-2.4-3.7-2.4-6c0-2.3,0.8-4.3,2.4-6s3.7-2.4,6-2.4
			c2.3,0,4.6,0.8,6.2,2.4c1.7,1.7,2.8,3.6,2.8,5.9V43.6z"/>
		
			<linearGradient id="SVGID_7_" gradientUnits="userSpaceOnUse" x1="94.1254" y1="509.5687" x2="393.988" y2="509.5687" gradientTransform="matrix(1 0 0 1 0 -466)">
			<stop  offset="8.847657e-03" style="stop-color:#3AB2D9"/>
			<stop  offset="1" style="stop-color:#39D0CB"/>
		</linearGradient>
		<path class="st8" d="M229,28.8c-4.1,0-7.6,1.4-10.5,4.3c-2.9,2.9-4.3,6.3-4.3,10.5s1.4,7.6,4.3,10.5c2.9,2.9,6.3,4.3,10.5,4.3
			s7.6-1.4,10.5-4.3c2.9-2.9,4.3-6.3,4.3-10.5s-1.4-7.6-4.3-10.5C236.6,30.2,233,28.8,229,28.8z M235.1,49.7c-1.7,1.7-3.7,2.4-6,2.4
			c-2.3,0-4.3-0.8-6-2.4s-2.4-3.7-2.4-6c0-2.3,0.8-4.3,2.4-6s3.7-2.4,6-2.4c2.3,0,4.3,0.8,6,2.4s2.4,3.7,2.4,6
			C237.5,46,236.7,48,235.1,49.7z"/>
		
			<linearGradient id="SVGID_8_" gradientUnits="userSpaceOnUse" x1="95.4047" y1="509.6243" x2="393.222" y2="509.6243" gradientTransform="matrix(1 0 0 1 0 -466)">
			<stop  offset="8.847657e-03" style="stop-color:#3AB2D9"/>
			<stop  offset="1" style="stop-color:#39D0CB"/>
		</linearGradient>
		<path class="st9" d="M275,41.3c-2.6-0.7-3.9-1.1-4.3-1.3c-1-0.6-1.4-1.3-1.4-2.3c0-0.8,0.2-1.3,0.8-1.8c0.6-0.6,1.1-0.7,1.9-0.7h5
			c0.9,0,2-0.4,2.7-1c0.7-0.6,1.3-1.4,1.3-2.2l0,0c0-0.9-0.7-1.7-1.3-2.3c-0.7-0.7-1.8-1-2.7-1h-4.7c-2.4,0-4.6,1-6.3,2.8
			c-1.8,1.8-2.7,3.9-2.7,6.3c0,2.6,0.7,4.6,2.1,5.9c1,1,2.6,1.8,4.6,2.3c2.7,0.8,4.1,1.2,4.3,1.3c1,0.4,1.4,1.2,1.4,2.1
			c0,0.8-0.2,1.3-0.8,1.8s-1.1,0.7-1.9,0.7h-7c-0.9,0-1.6,0.3-2.1,1c-0.7,0.7-0.9,1.4-0.9,2.3l0,0c0,0.9,0.2,1.7,0.9,2.3
			c0.7,0.7,1.3,1,2.1,1h6.7c2.4,0,4.6-1,6.3-2.8c1.8-1.8,2.7-3.9,2.7-6.5c0-2.4-0.7-4.5-2.1-5.8C278.6,42.7,277,41.9,275,41.3z"/>
		
			<linearGradient id="SVGID_9_" gradientUnits="userSpaceOnUse" x1="97.611" y1="504.6143" x2="392.9505" y2="504.6143" gradientTransform="matrix(1 0 0 1 0 -466)">
			<stop  offset="8.847657e-03" style="stop-color:#3AB2D9"/>
			<stop  offset="1" style="stop-color:#39D0CB"/>
		</linearGradient>
		<path class="st10" d="M298.2,28.8c-2.8,0-4,0.6-6.2,1.6v-8.9c0-0.9-0.2-1.4-0.9-2c-0.7-0.6-1.2-0.8-2.1-0.8h-0.1
			c-0.9,0-1.2,0.1-1.9,0.8c-0.7,0.7-0.7,1.2-0.7,2v33.8c0,0.9,0,1.7,0.7,2.3c0.7,0.7,1,1,1.9,1h0.1c0.9,0,1.4-0.4,2.1-1
			c0.7-0.6,0.9-1.4,0.9-2.3v-14c0-1.7,0.7-3.1,1.9-4.3c1.2-1.2,2.7-1.8,4.5-1.8c1.7,0,3.1,0.6,4.2,1.8c1.2,1.2,1.7,2.7,1.7,4.3v14
			c0,0.9,0.3,1.7,1,2.3c0.7,0.7,1.4,1,2.3,1l0,0c0.9,0,1.7-0.4,2.3-1c0.7-0.6,1-1.4,1-2.3v-14c0-3.5-1.3-6.3-3.8-8.8
			C304.6,30,301.5,28.8,298.2,28.8z"/>
		
			<linearGradient id="SVGID_10_" gradientUnits="userSpaceOnUse" x1="94.1254" y1="509.5687" x2="393.988" y2="509.5687" gradientTransform="matrix(1 0 0 1 0 -466)">
			<stop  offset="8.847657e-03" style="stop-color:#3AB2D9"/>
			<stop  offset="1" style="stop-color:#39D0CB"/>
		</linearGradient>
		<path class="st11" d="M329.8,28.8c-4.1,0-7.6,1.4-10.5,4.3c-2.9,2.9-4.3,6.3-4.3,10.5s1.4,7.6,4.3,10.5c2.9,2.9,6.3,4.3,10.5,4.3
			s7.6-1.4,10.5-4.3c2.9-2.9,4.3-6.3,4.3-10.5s-1.4-7.6-4.3-10.5C337.4,30.2,333.9,28.8,329.8,28.8z M335.8,49.7
			c-1.7,1.7-3.7,2.4-6,2.4s-4.3-0.8-6-2.4s-2.4-3.7-2.4-6c0-2.3,0.8-4.3,2.4-6s3.7-2.4,6-2.4s4.3,0.8,6,2.4s2.4,3.7,2.4,6
			C338.4,46,337.5,48,335.8,49.7z"/>
		
			<linearGradient id="SVGID_11_" gradientUnits="userSpaceOnUse" x1="101.8221" y1="516.4157" x2="393.5838" y2="516.4157" gradientTransform="matrix(1 0 0 1 0 -466)">
			<stop  offset="8.847657e-03" style="stop-color:#3AB2D9"/>
			<stop  offset="1" style="stop-color:#39D0CB"/>
		</linearGradient>
		<path class="st12" d="M363.9,28.8c-4.1,0-7.1,1.4-10,4.3s-4,6.3-4,10.5v25.7c0,0.9-0.1,1.4,0.6,2c0.7,0.6,0.9,0.8,1.8,0.8h0.1
			c0.9,0,1.6-0.1,2.2-0.8c0.7-0.7,1-1.2,1-2V55.9c2.2,1.7,4.8,2.6,8.5,2.6c4.1,0,7.6-1.4,10.5-4.3c2.9-2.9,4.3-6.3,4.3-10.5
			s-1.4-7.6-4.3-10.5C371.4,30.2,367.9,28.8,363.9,28.8z M369.9,49.5c-1.7,1.7-3.7,2.4-6,2.4c-2.3,0-4.3-0.8-6-2.4
			c-1.7-1.7-2.4-3.7-2.4-6s0.8-4.3,2.4-6c1.7-1.7,3.7-2.4,6-2.4c2.3,0,4.3,0.8,6,2.4c1.7,1.7,2.4,3.7,2.4,6
			C372.3,45.9,371.5,47.9,369.9,49.5z"/>
	</g>
</g>
<g id="圖層_3" class="st13">
	<g class="st14">
		<path d="M128.5,26.8c-3.7,0-6.8,1.3-9.4,3.9s-3.9,5.7-3.9,9.4s1.3,6.8,3.9,9.4c2.6,2.6,5.7,3.9,9.4,3.9c3.3,0,6.7-1.5,10.1-4.5
			v1.8c0,2.7-1.1,5.1-3.2,7.1c-2,2-4.3,2.9-6.9,2.9c-4,0-7-1.5-9-4.5c-0.5-0.7-1.1-0.9-1.9-0.6h-0.1c-0.5,0.2-0.8,0.5-1,1
			s-0.1,1,0.2,1.4c2.6,4,6.5,6,11.7,6c3.4,0,6.4-1.3,9.1-3.9c2.8-2.7,4.2-5.8,4.2-9.4V40c0-3.7-1.3-6.8-3.9-9.4
			C135.2,28,132.1,26.8,128.5,26.8z M138.5,40c0,2.8-1,5.2-3,7.1c-2,2-4.3,2.9-7.1,2.9s-5.1-1-7.1-2.9c-2-2-2.9-4.3-2.9-7.1
			s1-5.1,2.9-7.1c2-2,4.3-3,7.1-3c2.7,0,5.1,1,7,2.9c2,1.9,3,4.2,3,7V40H138.5z"/>
		
			<linearGradient id="SVGID_12_" gradientUnits="userSpaceOnUse" x1="73.4427" y1="48.6" x2="359.6024" y2="48.6" gradientTransform="matrix(1 0 0 -1 0 94)">
			<stop  offset="8.847657e-03" style="stop-color:#3AB2D9"/>
			<stop  offset="1" style="stop-color:#39D0CB"/>
		</linearGradient>
		<path class="st15" d="M128.5,26.8c-3.7,0-6.8,1.3-9.4,3.9s-3.9,5.7-3.9,9.4s1.3,6.8,3.9,9.4c2.6,2.6,5.7,3.9,9.4,3.9
			c3.3,0,6.7-1.5,10.1-4.5v1.8c0,2.7-1.1,5.1-3.2,7.1c-2,2-4.3,2.9-6.9,2.9c-4,0-7-1.5-9-4.5c-0.5-0.7-1.1-0.9-1.9-0.6h-0.1
			c-0.5,0.2-0.8,0.5-1,1s-0.1,1,0.2,1.4c2.6,4,6.5,6,11.7,6c3.4,0,6.4-1.3,9.1-3.9c2.8-2.7,4.2-5.8,4.2-9.4V40
			c0-3.7-1.3-6.8-3.9-9.4C135.2,28,132.1,26.8,128.5,26.8z M138.5,40c0,2.8-1,5.2-3,7.1c-2,2-4.3,2.9-7.1,2.9s-5.1-1-7.1-2.9
			c-2-2-2.9-4.3-2.9-7.1s1-5.1,2.9-7.1c2-2,4.3-3,7.1-3c2.7,0,5.1,1,7,2.9c2,1.9,3,4.2,3,7V40H138.5z"/>
		<path d="M159.4,26.8c-3.7,0-6.8,1.3-9.4,3.9c-2.6,2.6-3.9,5.7-3.9,9.4s1.3,6.8,3.9,9.4c2.6,2.6,5.7,3.9,9.4,3.9s6.8-1.3,9.4-3.9
			c2.6-2.6,3.9-5.7,3.9-9.4s-1.3-6.8-3.9-9.4C166.2,28,163,26.8,159.4,26.8z M166.5,47.2c-1.9,2-4.3,3-7.1,3s-5.1-1-7.1-3
			s-2.9-4.3-2.9-7.1s1-5.1,2.9-7.1c2-2,4.3-3,7.1-3s5.2,1,7.1,3c2,2,3,4.3,3,7.1C169.4,42.9,168.4,45.2,166.5,47.2z"/>
		
			<linearGradient id="SVGID_13_" gradientUnits="userSpaceOnUse" x1="73.4427" y1="53.9" x2="359.6024" y2="53.9" gradientTransform="matrix(1 0 0 -1 0 94)">
			<stop  offset="8.847657e-03" style="stop-color:#3AB2D9"/>
			<stop  offset="1" style="stop-color:#39D0CB"/>
		</linearGradient>
		<path class="st16" d="M159.4,26.8c-3.7,0-6.8,1.3-9.4,3.9c-2.6,2.6-3.9,5.7-3.9,9.4s1.3,6.8,3.9,9.4c2.6,2.6,5.7,3.9,9.4,3.9
			s6.8-1.3,9.4-3.9c2.6-2.6,3.9-5.7,3.9-9.4s-1.3-6.8-3.9-9.4C166.2,28,163,26.8,159.4,26.8z M166.5,47.2c-1.9,2-4.3,3-7.1,3
			s-5.1-1-7.1-3s-2.9-4.3-2.9-7.1s1-5.1,2.9-7.1c2-2,4.3-3,7.1-3s5.2,1,7.1,3c2,2,3,4.3,3,7.1C169.4,42.9,168.4,45.2,166.5,47.2z"/>
		<path d="M189.5,26.8c-3.7,0-6.8,1.3-9.4,3.9c-2.6,2.6-3.9,5.7-3.9,9.4s1.3,6.8,3.9,9.4c2.6,2.6,5.7,3.9,9.4,3.9
			c3.3,0,6.7-1.5,10.1-4.5v1.8c0,2.7-1.1,5.1-3.2,7.1c-2,2-4.3,2.9-6.9,2.9c-4,0-7-1.5-9-4.5c-0.5-0.7-1.1-0.9-1.9-0.6h-0.1
			c-0.5,0.2-0.8,0.5-1,1s-0.1,1,0.2,1.4c2.6,4,6.5,6,11.7,6c3.4,0,6.4-1.3,9.1-3.9c2.8-2.7,4.2-5.8,4.2-9.4V40
			c0-3.7-1.3-6.8-3.9-9.4C196.3,28,193.1,26.8,189.5,26.8z M199.5,40c0,2.8-1,5.2-3,7.1c-2,2-4.3,2.9-7.1,2.9s-5.2-1-7.1-2.9
			c-2-2-2.9-4.3-2.9-7.1s1-5.1,2.9-7.1c2-2,4.3-3,7.1-3c2.7,0,5.1,1,7,2.9c2,1.9,3,4.2,3,7V40H199.5z"/>
		
			<linearGradient id="SVGID_14_" gradientUnits="userSpaceOnUse" x1="73.4427" y1="48.6" x2="359.6024" y2="48.6" gradientTransform="matrix(1 0 0 -1 0 94)">
			<stop  offset="8.847657e-03" style="stop-color:#3AB2D9"/>
			<stop  offset="1" style="stop-color:#39D0CB"/>
		</linearGradient>
		<path class="st17" d="M189.5,26.8c-3.7,0-6.8,1.3-9.4,3.9c-2.6,2.6-3.9,5.7-3.9,9.4s1.3,6.8,3.9,9.4c2.6,2.6,5.7,3.9,9.4,3.9
			c3.3,0,6.7-1.5,10.1-4.5v1.8c0,2.7-1.1,5.1-3.2,7.1c-2,2-4.3,2.9-6.9,2.9c-4,0-7-1.5-9-4.5c-0.5-0.7-1.1-0.9-1.9-0.6h-0.1
			c-0.5,0.2-0.8,0.5-1,1s-0.1,1,0.2,1.4c2.6,4,6.5,6,11.7,6c3.4,0,6.4-1.3,9.1-3.9c2.8-2.7,4.2-5.8,4.2-9.4V40
			c0-3.7-1.3-6.8-3.9-9.4C196.3,28,193.1,26.8,189.5,26.8z M199.5,40c0,2.8-1,5.2-3,7.1c-2,2-4.3,2.9-7.1,2.9s-5.2-1-7.1-2.9
			c-2-2-2.9-4.3-2.9-7.1s1-5.1,2.9-7.1c2-2,4.3-3,7.1-3c2.7,0,5.1,1,7,2.9c2,1.9,3,4.2,3,7V40H199.5z"/>
		<path d="M220.4,26.8c-3.7,0-6.8,1.3-9.4,3.9c-2.6,2.6-3.9,5.7-3.9,9.4s1.3,6.8,3.9,9.4c2.6,2.6,5.7,3.9,9.4,3.9s6.8-1.3,9.4-3.9
			c2.6-2.6,3.9-5.7,3.9-9.4s-1.3-6.8-3.9-9.4C227.2,28,224.1,26.8,220.4,26.8z M227.5,47.2c-1.9,2-4.3,3-7.1,3s-5.1-1-7.1-3
			s-2.9-4.3-2.9-7.1s1-5.1,2.9-7.1c2-2,4.3-3,7.1-3s5.2,1,7.1,3c2,2,3,4.3,3,7.1C230.4,42.9,229.5,45.2,227.5,47.2z"/>
		
			<linearGradient id="SVGID_15_" gradientUnits="userSpaceOnUse" x1="73.4427" y1="53.9" x2="359.6024" y2="53.9" gradientTransform="matrix(1 0 0 -1 0 94)">
			<stop  offset="8.847657e-03" style="stop-color:#3AB2D9"/>
			<stop  offset="1" style="stop-color:#39D0CB"/>
		</linearGradient>
		<path class="st18" d="M220.4,26.8c-3.7,0-6.8,1.3-9.4,3.9c-2.6,2.6-3.9,5.7-3.9,9.4s1.3,6.8,3.9,9.4c2.6,2.6,5.7,3.9,9.4,3.9
			s6.8-1.3,9.4-3.9c2.6-2.6,3.9-5.7,3.9-9.4s-1.3-6.8-3.9-9.4C227.2,28,224.1,26.8,220.4,26.8z M227.5,47.2c-1.9,2-4.3,3-7.1,3
			s-5.1-1-7.1-3s-2.9-4.3-2.9-7.1s1-5.1,2.9-7.1c2-2,4.3-3,7.1-3s5.2,1,7.1,3c2,2,3,4.3,3,7.1C230.4,42.9,229.5,45.2,227.5,47.2z"/>
		<path d="M259.8,39.3c-2.6-0.7-4.2-1.2-4.6-1.4c-1.5-0.8-2.3-2.1-2.3-3.7c0-1.1,0.4-2.1,1.2-3c0.8-0.8,1.8-1.2,3-1.2h5
			c0.4,0,0.8-0.2,1.1-0.5c0.3-0.3,0.5-0.7,0.5-1.1v-0.1c0-0.4-0.2-0.8-0.5-1.1c-0.3-0.3-0.7-0.5-1.1-0.5h-4.7
			c-2.1,0-3.8,0.7-5.3,2.2c-1.4,1.4-2.2,3.2-2.2,5.2c0,2.1,0.6,3.7,1.7,4.8c0.8,0.8,2.1,1.4,3.9,2c2.7,0.8,4.2,1.2,4.6,1.4
			c1.6,0.8,2.3,1.9,2.3,3.5c0,1.2-0.4,2.2-1.2,3c-0.8,0.8-1.8,1.2-3,1.2h-7c-0.4,0-0.8,0.2-1.1,0.5s-0.5,0.7-0.5,1.1v0.1
			c0,0.4,0.2,0.8,0.5,1.1s0.7,0.5,1.1,0.5h6.7c2.1,0,3.8-0.7,5.3-2.2c1.4-1.5,2.2-3.2,2.2-5.3s-0.6-3.6-1.7-4.7
			C262.9,40.4,261.6,39.8,259.8,39.3z"/>
		
			<linearGradient id="SVGID_16_" gradientUnits="userSpaceOnUse" x1="73.4427" y1="54" x2="359.6024" y2="54" gradientTransform="matrix(1 0 0 -1 0 94)">
			<stop  offset="8.847657e-03" style="stop-color:#3AB2D9"/>
			<stop  offset="1" style="stop-color:#39D0CB"/>
		</linearGradient>
		<path class="st19" d="M259.8,39.3c-2.6-0.7-4.2-1.2-4.6-1.4c-1.5-0.8-2.3-2.1-2.3-3.7c0-1.1,0.4-2.1,1.2-3c0.8-0.8,1.8-1.2,3-1.2
			h5c0.4,0,0.8-0.2,1.1-0.5c0.3-0.3,0.5-0.7,0.5-1.1v-0.1c0-0.4-0.2-0.8-0.5-1.1c-0.3-0.3-0.7-0.5-1.1-0.5h-4.7
			c-2.1,0-3.8,0.7-5.3,2.2c-1.4,1.4-2.2,3.2-2.2,5.2c0,2.1,0.6,3.7,1.7,4.8c0.8,0.8,2.1,1.4,3.9,2c2.7,0.8,4.2,1.2,4.6,1.4
			c1.6,0.8,2.3,1.9,2.3,3.5c0,1.2-0.4,2.2-1.2,3c-0.8,0.8-1.8,1.2-3,1.2h-7c-0.4,0-0.8,0.2-1.1,0.5s-0.5,0.7-0.5,1.1v0.1
			c0,0.4,0.2,0.8,0.5,1.1s0.7,0.5,1.1,0.5h6.7c2.1,0,3.8-0.7,5.3-2.2c1.4-1.5,2.2-3.2,2.2-5.3s-0.6-3.6-1.7-4.7
			C262.9,40.4,261.6,39.8,259.8,39.3z"/>
		<path d="M280.3,26.8c-2.4,0-5,1-7.7,3.1v-12c0-0.4-0.2-0.8-0.5-1.1c-0.3-0.3-0.7-0.4-1.1-0.4h0c-0.4,0-0.8,0.1-1.1,0.4
			c-0.3,0.3-0.5,0.7-0.5,1.1v33.9c0,0.4,0.2,0.8,0.5,1.1s0.7,0.5,1.1,0.5h0.1c0.4,0,0.8-0.2,1.1-0.5c0.3-0.3,0.5-0.7,0.5-1.1V37.6
			c0-2.1,0.7-3.9,2.2-5.4s3.3-2.3,5.4-2.3s3.9,0.8,5.4,2.3s2.2,3.3,2.2,5.4v14.1c0,0.4,0.2,0.8,0.5,1.1s0.7,0.5,1.1,0.5h0.1
			c0.4,0,0.8-0.2,1.1-0.5c0.3-0.3,0.5-0.7,0.5-1.1V37.6c0-3-1.1-5.6-3.2-7.7C285.9,27.8,283.3,26.8,280.3,26.8z"/>
		
			<linearGradient id="SVGID_17_" gradientUnits="userSpaceOnUse" x1="73.4427" y1="59.1" x2="359.6024" y2="59.1" gradientTransform="matrix(1 0 0 -1 0 94)">
			<stop  offset="8.847657e-03" style="stop-color:#3AB2D9"/>
			<stop  offset="1" style="stop-color:#39D0CB"/>
		</linearGradient>
		<path class="st20" d="M280.3,26.8c-2.4,0-5,1-7.7,3.1v-12c0-0.4-0.2-0.8-0.5-1.1c-0.3-0.3-0.7-0.4-1.1-0.4h0
			c-0.4,0-0.8,0.1-1.1,0.4c-0.3,0.3-0.5,0.7-0.5,1.1v33.9c0,0.4,0.2,0.8,0.5,1.1s0.7,0.5,1.1,0.5h0.1c0.4,0,0.8-0.2,1.1-0.5
			c0.3-0.3,0.5-0.7,0.5-1.1V37.6c0-2.1,0.7-3.9,2.2-5.4s3.3-2.3,5.4-2.3s3.9,0.8,5.4,2.3s2.2,3.3,2.2,5.4v14.1
			c0,0.4,0.2,0.8,0.5,1.1s0.7,0.5,1.1,0.5h0.1c0.4,0,0.8-0.2,1.1-0.5c0.3-0.3,0.5-0.7,0.5-1.1V37.6c0-3-1.1-5.6-3.2-7.7
			C285.9,27.8,283.3,26.8,280.3,26.8z"/>
		<path d="M308.8,26.8c-3.7,0-6.8,1.3-9.4,3.9s-3.9,5.7-3.9,9.4s1.3,6.8,3.9,9.4c2.6,2.6,5.7,3.9,9.4,3.9s6.8-1.3,9.4-3.9
			c2.6-2.6,3.9-5.7,3.9-9.4s-1.3-6.8-3.9-9.4C315.6,28,312.5,26.8,308.8,26.8z M315.9,47.2c-1.9,2-4.3,3-7.1,3c-2.8,0-5.1-1-7.1-3
			s-2.9-4.3-2.9-7.1s1-5.1,2.9-7.1c2-2,4.3-3,7.1-3c2.8,0,5.2,1,7.1,3c2,2,3,4.3,3,7.1S317.9,45.2,315.9,47.2z"/>
		
			<linearGradient id="SVGID_18_" gradientUnits="userSpaceOnUse" x1="73.4427" y1="53.9" x2="359.6024" y2="53.9" gradientTransform="matrix(1 0 0 -1 0 94)">
			<stop  offset="8.847657e-03" style="stop-color:#3AB2D9"/>
			<stop  offset="1" style="stop-color:#39D0CB"/>
		</linearGradient>
		<path class="st21" d="M308.8,26.8c-3.7,0-6.8,1.3-9.4,3.9s-3.9,5.7-3.9,9.4s1.3,6.8,3.9,9.4c2.6,2.6,5.7,3.9,9.4,3.9
			s6.8-1.3,9.4-3.9c2.6-2.6,3.9-5.7,3.9-9.4s-1.3-6.8-3.9-9.4C315.6,28,312.5,26.8,308.8,26.8z M315.9,47.2c-1.9,2-4.3,3-7.1,3
			c-2.8,0-5.1-1-7.1-3s-2.9-4.3-2.9-7.1s1-5.1,2.9-7.1c2-2,4.3-3,7.1-3c2.8,0,5.2,1,7.1,3c2,2,3,4.3,3,7.1S317.9,45.2,315.9,47.2z"
			/>
		<path d="M339.7,26.8c-3.7,0-6.8,1.3-9.4,3.9s-3.9,5.7-3.9,9.4v22.3c0,0.4,0.2,0.8,0.5,1.1s0.7,0.5,1.1,0.5h0.1
			c0.4,0,0.8-0.2,1.1-0.5c0.3-0.3,0.5-0.7,0.5-1.1V48.8c3.3,3,6.7,4.5,10.1,4.5c3.7,0,6.8-1.3,9.4-3.9c2.6-2.6,3.9-5.7,3.9-9.4
			c0-3.7-1.3-6.8-3.9-9.4C346.5,28,343.4,26.8,339.7,26.8z M346.8,47.1c-1.9,2-4.3,3-7.1,3c-2.8,0-5.1-1-7.1-3s-2.9-4.3-2.9-7.1
			s1-5.1,2.9-7.1c2-2,4.3-2.9,7.1-2.9s5.1,1,7.1,2.9c2,2,3,4.3,3,7.1C349.8,42.7,348.8,45.1,346.8,47.1z"/>
		
			<linearGradient id="SVGID_19_" gradientUnits="userSpaceOnUse" x1="73.4427" y1="48.6" x2="359.6024" y2="48.6" gradientTransform="matrix(1 0 0 -1 0 94)">
			<stop  offset="8.847657e-03" style="stop-color:#3AB2D9"/>
			<stop  offset="1" style="stop-color:#39D0CB"/>
		</linearGradient>
		<path class="st22" d="M339.7,26.8c-3.7,0-6.8,1.3-9.4,3.9s-3.9,5.7-3.9,9.4v22.3c0,0.4,0.2,0.8,0.5,1.1s0.7,0.5,1.1,0.5h0.1
			c0.4,0,0.8-0.2,1.1-0.5c0.3-0.3,0.5-0.7,0.5-1.1V48.8c3.3,3,6.7,4.5,10.1,4.5c3.7,0,6.8-1.3,9.4-3.9c2.6-2.6,3.9-5.7,3.9-9.4
			c0-3.7-1.3-6.8-3.9-9.4C346.5,28,343.4,26.8,339.7,26.8z M346.8,47.1c-1.9,2-4.3,3-7.1,3c-2.8,0-5.1-1-7.1-3s-2.9-4.3-2.9-7.1
			s1-5.1,2.9-7.1c2-2,4.3-2.9,7.1-2.9s5.1,1,7.1,2.9c2,2,3,4.3,3,7.1C349.8,42.7,348.8,45.1,346.8,47.1z"/>
	</g>
</g>
</svg>
