<?xml version="1.0" encoding="utf-8"?>
<!-- Generator: Adobe Illustrator 20.1.0, SVG Export Plug-In . SVG Version: 6.00 Build 0)  -->
<svg version="1.1" id="圖層_1" xmlns="http://www.w3.org/2000/svg" xmlns:xlink="http://www.w3.org/1999/xlink" x="0px" y="0px"
	 viewBox="0 0 105 93" style="enable-background:new 0 0 105 93;" xml:space="preserve">
<style type="text/css">
	.st0{fill:url(#SVGID_1_);}
	.st1{fill:url(#SVGID_2_);}
	.st2{fill:url(#SVGID_3_);}
	.st3{fill:none;}
	.st4{fill:#FFFFFF;}
	.st5{fill:url(#SVGID_4_);}
	.st6{fill:url(#SVGID_5_);}
	.st7{fill:url(#SVGID_6_);}
	.st8{fill:url(#SVGID_7_);}
	.st9{fill:url(#SVGID_8_);}
	.st10{fill:url(#SVGID_9_);}
	.st11{fill:url(#SVGID_10_);}
	.st12{fill:url(#SVGID_11_);}
	.st13{display:none;}
	.st14{display:inline;}
	.st15{fill:url(#SVGID_12_);}
	.st16{fill:url(#SVGID_13_);}
	.st17{fill:url(#SVGID_14_);}
	.st18{fill:url(#SVGID_15_);}
	.st19{fill:url(#SVGID_16_);}
	.st20{fill:url(#SVGID_17_);}
	.st21{fill:url(#SVGID_18_);}
	.st22{fill:url(#SVGID_19_);}
</style>
<g>
	
		<linearGradient id="SVGID_1_" gradientUnits="userSpaceOnUse" x1="4.8974" y1="494.3656" x2="54.8942" y2="494.3656" gradientTransform="matrix(1 0 0 1 0 -466)">
		<stop  offset="8.847657e-03" style="stop-color:#3AB2D9"/>
		<stop  offset="1" style="stop-color:#39D0CB"/>
	</linearGradient>
	<polygon class="st0" points="29.8,5 4.8,45.4 9.1,51.7 54.9,50.1 	"/>
	
		<linearGradient id="SVGID_2_" gradientUnits="userSpaceOnUse" x1="31.9133" y1="496.7948" x2="80.4158" y2="496.7948" gradientTransform="matrix(1 0 0 1 0 -466)">
		<stop  offset="8.847657e-03" style="stop-color:#3AB2D9"/>
		<stop  offset="1" style="stop-color:#39D0CB"/>
	</linearGradient>
	<path class="st1" d="M45.6,33.1l8.8,15.1c0.5,0.8,1.7,0.9,2.3,0.2c0.1-0.2,0.2-0.3,0.3-0.6l2.8-5c0.8-1.5,2.4-2.6,4.2-2.6l0,0
		c1.8,0,3.4,1,4.3,2.6l5.8,10.1c0.3,0.6,0.9,0.9,1.7,1c0.7,0,1.4-0.3,1.7-0.9l2.1-3.4c1-1.6,1-3.5,0.1-5.1l-7.3-13
		c-1.8-3.2-1.8-6.9,0-10.1l2.7-4.9c1.4-2.4,1.5-4.1,0.2-6.3c-0.1-0.1-0.1-0.2-0.2-0.3c-1.5-1.5-3.6-2.4-5.6-2.4H33.2l0,0
		c-1,0-1.6,1.1-1.1,2L45.6,33.1z"/>
	
		<linearGradient id="SVGID_3_" gradientUnits="userSpaceOnUse" x1="53.3964" y1="552.6104" x2="53.3964" y2="482.2832" gradientTransform="matrix(1 0 0 1 0 -466)">
		<stop  offset="8.847657e-03" style="stop-color:#3AB2D9"/>
		<stop  offset="1" style="stop-color:#39D0CB"/>
	</linearGradient>
	<path class="st2" d="M79,16.3c-0.2,0.7-0.6,1.4-1,2.1l-2.7,4.7c-1.1,2.1-1.1,4.6,0,6.7l7.3,12.9c1.5,2.7,1.5,6-0.2,8.6l-2.1,3.4
		c-1,1.6-2.7,2.5-4.5,2.5h-0.1c-1.9,0-3.6-1-4.5-2.6l-5.8-9.8c-0.5-0.7-1-0.8-1.4-0.8c-0.2,0-0.9,0-1.4,0.8L60,49.6
		c-1,1.8-2.5,3.2-4.2,4.2c-1.8,1-3.7,1.4-5.8,1.4H13.9c-0.3,0-0.8,0-1.1,0c-1,0-1.7,1.1-1.2,2l14.6,25.5c1.5,2.5,4.2,4.2,7.1,4.2h36
		c1.6,0,3.2-0.5,4.4-1.4c1.1-0.7,2-1.7,2.6-2.8l18.1-31.3c1.5-2.5,1.5-5.6,0-8.1L79,16.3z"/>
	<g>
		<path class="st3" d="M14,50.5h36c0.6,0,1.1,0.1,1.7,0L28.2,9.8c-0.6,0.5-1,1.1-1.4,1.8L8.8,42.9c-0.9,1.5-1.1,2.9-0.9,4.6
			C9.2,49.4,11.6,50.5,14,50.5z"/>
		<path class="st3" d="M55.7,48.5c0.3-0.5,0.7-0.9,1-1.4l2.8-5.1c1-1.7,2.8-2.9,4.7-2.9l0,0c2,0,3.7,1.2,4.7,2.9l5.8,9.9
			c0.3,0.6,0.9,0.7,1.1,0.7c0.2,0,0.8,0,1.2-0.7l2.1-3.4c0.9-1.4,0.9-3.1,0.1-4.5l-7.3-12.9c-1.9-3.3-1.9-7.2,0-10.6l2.7-4.9
			c1.4-2.3,1.4-3.8,0.1-6c-1.5-1.5-3.4-2.4-5.4-2.4h-36c-0.3,0-0.8,0.1-1.1,0.2L55.7,48.5z"/>
		<path class="st3" d="M79.2,17c-0.2,0.3-0.3,0.7-0.6,1.1l-2.7,4.7c-1,1.9-1,4.2,0,6.1l7.3,12.9c1.6,2.8,1.6,6.4-0.2,9.2l-2.1,3.4
			c-1.1,1.7-2.9,2.7-5,2.7h-0.1c-2,0-4-1-5-2.8l-5.8-10.1c-0.2-0.3-0.6-0.6-0.8-0.6l0,0c-0.2,0-0.6,0.2-0.9,0.7l-2.8,4.7
			C58.4,52.8,54.3,55,50,55H14c-0.9,0-1.7,0.1-2.5,0l15.3,26.7c1.4,2.4,3.8,4,6.6,4h36c2.7,0,5.2-1.5,6.6-3.8L94,50.5
			c1.4-2.4,1.4-5.3,0-7.6L79.2,17z"/>
		<path class="st4" d="M98.1,40.5L80,9.3c-0.5-0.8-1-1.7-1.6-2.4c-2.3-2.5-5.5-4-8.9-4h-36c-4.3,0-8.4,2.5-10.5,6.2L4.8,40.5
			C3.4,43.1,2.9,46,3.5,49c0,0.1,0,0.2,0.1,0.3l0,0c0,0,0,0.1,0.1,0.1c0.2,1.1,0.7,2.3,1.2,3.2L23,83.9c2.1,3.7,6.2,6.1,10.5,6.1h36
			c4.3,0,8.4-2.4,10.5-6.1l18.1-31.3C100.2,49,100.2,44.4,98.1,40.5z M69.5,7.5c2,0,4,0.9,5.4,2.4c1.2,2.1,1.1,3.7-0.1,6l-2.7,4.9
			c-1.8,3.3-1.8,7.3,0,10.6l7.3,12.9c0.8,1.5,0.8,3.2-0.1,4.5l-2.1,3.4c-0.3,0.6-1,0.7-1.2,0.7c-0.2,0-0.8-0.1-1.1-0.7L69,42.1
			c-1-1.7-2.8-2.9-4.7-2.9l0,0c-2,0-3.7,1.2-4.7,2.9l-2.8,5c-0.2,0.5-0.7,1-1,1.4L32.2,7.7c0.3-0.1,0.8-0.2,1.1-0.2
			C33.3,7.5,69.5,7.5,69.5,7.5z M8.8,42.8l18.1-31.3c0.3-0.7,0.8-1.2,1.4-1.7l23.6,40.7c-0.6,0.1-1.1,0-1.7,0H14
			c-2.5,0-4.7-1-6.2-2.9C7.7,45.8,7.9,44.4,8.8,42.8z M94.1,50.5L76,81.8c-1.4,2.3-3.8,3.7-6.6,3.7h-36c-2.7,0-5.2-1.5-6.6-3.8
			L11.5,55c0.8,0.2,1.7,0,2.5,0h36c4.3,0,8.4-2,10.5-5.9l2.8-4.9c0.2-0.5,0.7-0.6,0.9-0.6l0,0c0.2,0,0.6,0.2,0.9,0.7l5.8,9.9
			c1,1.8,2.9,2.9,5,2.9H76c2,0,4-1,5-2.7l2.1-3.4c1.8-2.8,1.8-6.2,0.2-9.2L76,29.1c-1.1-1.9-1.1-4.2,0-6.1l2.7-4.7
			c0.2-0.3,0.5-0.8,0.6-1.1l14.9,25.8C95.5,45.1,95.5,48.1,94.1,50.5z"/>
	</g>
</g>
</svg>
